PathFileType	4	(X/Y/Z)	G:\Shared drives\HPL_Drive\Nord Sprinting Study\Kristen_Nord_test\Trimmed_Nord000007.trc
DataRate	CameraRate	NumFrames	NumMarkers	Units	OrigDataRate	OrigDataStartFrame	OrigNumFrames
200.00	200.00	      5	52	mm	200.00	967	      1933
Frame#	Time	C7			R_Shoulder			L_Shoulder			Sternum			R_humerus			R_elbow_med			R_elbow_lat			R_forearm			R_wrist_radius			R_wrist_ulna			L_humerus			L_elbow_med			L_elbow_lat			L_forearm			L_wrist_radius			L_wrist_ulna			r.ASIS			r.PSIS			r_IC			L.ASIS			L.PSIS			l_IC			r_thigh1			r_thigh2			r_thigh3			r_thigh4			r_thigh5			r_knee			r_mknee			r_shank_antsup			r_sh2			r_sh3			r_sh4			r_ankle			r_mankle			r_calc			r_5meta			r_toe			L_thigh1			L_thigh2			L_thigh3			L_thigh4			L_knee			L_mknee			L_shank_antsup			L_sh2			L_sh3			L_ankle			L_mankle			L_calc			L_5meta			L_toe			
		X1	Y1	Z1	X2	Y2	Z2	X3	Y3	Z3	X4	Y4	Z4	X5	Y5	Z5	X6	Y6	Z6	X7	Y7	Z7	X8	Y8	Z8	X9	Y9	Z9	X10	Y10	Z10	X11	Y11	Z11	X12	Y12	Z12	X13	Y13	Z13	X14	Y14	Z14	X15	Y15	Z15	X16	Y16	Z16	X17	Y17	Z17	X18	Y18	Z18	X19	Y19	Z19	X20	Y20	Z20	X21	Y21	Z21	X22	Y22	Z22	X23	Y23	Z23	X24	Y24	Z24	X25	Y25	Z25	X26	Y26	Z26	X27	Y27	Z27	X28	Y28	Z28	X29	Y29	Z29	X30	Y30	Z30	X31	Y31	Z31	X32	Y32	Z32	X33	Y33	Z33	X34	Y34	Z34	X35	Y35	Z35	X36	Y36	Z36	X37	Y37	Z37	X38	Y38	Z38	X39	Y39	Z39	X40	Y40	Z40	X41	Y41	Z41	X42	Y42	Z42	X43	Y43	Z43	X44	Y44	Z44	X45	Y45	Z45	X46	Y46	Z46	X47	Y47	Z47	X48	Y48	Z48	X49	Y49	Z49	X50	Y50	Z50	X51	Y51	Z51	X52	Y52	Z52	

967	4.830	1221.09753	659.82019	1215.66418	1340.11755	705.76031	1204.58191	1076.68140	696.58954	1218.15466	1206.33093	779.27448	1146.90613	1509.02637	652.55579	1144.24390	1619.72693	655.11328	1033.12781	1616.39417	592.99744	1085.26965	1595.54102	665.10382	1186.44312	1551.78284	757.90765	1249.45996	1588.93933	735.15387	1269.96130	883.27002	636.45081	1160.10217	783.10901	659.48199	1058.60596	779.46765	596.75592	1104.90784	830.25488	675.38190	1218.91321	886.56708	738.88110	1272.55725	837.77942	742.11847	1287.89404	1324.57800	627.31653	690.10742	1285.12744	509.42740	841.28351	1362.32983	616.73175	797.30121	1087.02612	611.25519	695.14929	1167.96375	502.59601	838.37262	1064.99866	602.23523	793.15027	1383.58044	485.10287	477.86133	1371.96582	431.06888	376.02679	1384.80469	377.34055	371.93109	1394.40735	390.88159	529.96161	1371.79749	338.08832	425.43591	1365.59326	352.01065	300.76221	1243.54431	336.55331	322.88791	1385.56116	214.84818	293.18442	1370.26880	96.87789	302.80313	1400.23254	217.77766	366.23599	1384.28308	104.35920	383.61096	1364.74451	-64.05655	352.85773	1283.62476	-52.93647	338.55737	1316.27893	-86.08208	421.85596	1372.19141	-150.08836	267.12311	1328.25671	-135.02995	216.76396	1025.10449	485.54568	486.64789	1033.19141	426.66006	359.54822	1029.92273	379.06406	543.88446	1039.07520	328.23468	418.23898	1026.23132	338.63705	325.69455	1153.45081	344.15887	306.06415	1015.92828	224.41925	306.35245	1014.19415	232.61751	396.41019	1033.29858	112.60806	398.18637	1048.24963	-66.69173	357.95609	1127.98596	-42.89186	342.88931	1091.20398	-60.09752	420.61145	1074.44482	-170.38409	270.50830	1124.18201	-152.67166	220.71054	
968	4.835	1221.12244	660.25385	1215.48865	1340.15112	706.20026	1204.33215	1076.76367	697.00543	1217.94312	1206.35986	779.63599	1146.64624	1509.08472	653.00024	1144.06384	1619.74316	655.56909	1032.89795	1616.48096	593.45007	1085.08008	1595.68823	665.72211	1186.09839	1551.88184	758.44946	1249.19299	1589.06604	735.73157	1269.68799	883.33759	636.78821	1159.86243	783.20087	659.74933	1058.43347	779.60406	597.01447	1104.67700	830.42535	675.69879	1218.59460	886.58984	739.26007	1272.32593	837.82196	742.44196	1287.64478	1324.65454	627.27112	689.99524	1285.10449	509.52054	841.26520	1362.35132	616.78796	797.14044	1087.04956	611.32764	695.03351	1167.94348	502.74649	838.34570	1065.08850	602.41913	793.02997	1383.61145	485.02930	477.85239	1371.99500	431.06042	375.99731	1385.39368	377.28967	372.11810	1394.03955	390.63968	529.78912	1371.75928	338.04993	425.40854	1365.58411	351.98083	300.74319	1243.55542	336.55466	322.88150	1385.51257	214.81859	293.15991	1370.24463	96.86372	302.81198	1400.17773	217.76070	366.22714	1384.23413	104.35144	383.63010	1364.69507	-64.09014	352.88968	1283.55579	-52.97374	338.64026	1316.19775	-86.10831	421.86691	1371.64490	-150.12404	266.96545	1328.20032	-135.05487	216.66451	1025.17847	485.58246	486.58444	1033.24304	426.68185	359.53412	1029.87939	379.19211	543.86316	1039.04407	328.25372	418.24188	1026.25330	338.63745	325.72037	1153.44104	344.13293	306.02750	1015.82971	224.33960	306.62234	1014.08679	232.62581	396.41406	1033.19861	112.58784	398.21243	1048.07996	-66.65678	357.96414	1127.78198	-42.97101	342.89877	1091.01050	-60.02945	420.68692	1074.24524	-170.43085	270.59549	1123.98608	-152.80080	220.80325	
969	4.840	1221.20605	660.66345	1215.32056	1340.18799	706.60980	1204.13574	1076.71399	697.28619	1217.83032	1206.37976	779.99933	1146.45532	1509.11963	653.45844	1143.88330	1619.77344	655.95917	1032.69958	1616.53979	593.92810	1084.90491	1595.76038	666.21893	1186.01233	1552.00281	759.10199	1248.91797	1589.18372	736.34344	1269.40247	883.39197	637.12006	1159.65417	783.25476	660.00482	1058.22168	779.52509	597.44928	1104.58923	830.37396	676.00970	1218.48486	886.64819	739.59589	1272.07715	837.90112	742.78412	1287.38611	1324.68738	627.24225	689.90271	1285.13391	509.62631	841.21600	1362.42383	616.87585	797.02411	1087.12927	611.44043	694.87933	1167.94336	502.89236	838.36420	1065.13208	602.58026	792.91748	1383.64697	484.96075	477.80679	1372.02014	430.92950	375.91907	1384.79419	377.25180	371.84805	1394.03406	390.57672	529.76855	1371.76624	338.00934	425.37946	1365.58423	352.00537	300.72537	1243.54089	336.56470	322.85645	1385.51196	214.81340	293.15140	1370.22412	96.86355	302.84619	1400.19067	217.71935	366.25922	1384.23755	104.38311	383.65344	1364.65552	-64.08371	352.93051	1283.52234	-52.92311	338.73547	1316.14612	-86.12318	421.93436	1371.99426	-150.13133	267.18402	1328.09729	-135.02940	216.72997	1025.24524	485.68027	486.54865	1033.31006	426.71875	359.50061	1029.13342	380.91656	543.95447	1039.09546	328.24310	418.13467	1026.22205	338.62802	325.76489	1153.42871	344.11777	306.01392	1015.76099	224.33696	306.61621	1014.09668	232.65894	396.43054	1033.07141	112.62025	398.23203	1047.86987	-66.62432	358.03571	1127.56396	-43.00173	342.90567	1090.78430	-59.97613	420.71332	1074.03711	-170.49510	270.70511	1123.79578	-152.91562	220.85530	
970	4.845	1221.21814	661.07739	1215.17566	1340.21606	707.03937	1203.93909	1076.83386	697.66077	1217.51929	1206.39087	780.42242	1146.25854	1509.18323	653.93097	1143.66956	1619.77173	656.40363	1032.50671	1616.60437	594.36841	1084.78125	1595.76343	666.64453	1185.79822	1552.11121	759.68286	1248.67102	1589.39783	736.95612	1269.05261	883.44769	637.41107	1159.49243	783.31885	660.21204	1058.00891	779.60620	597.69952	1104.37756	830.43097	676.26233	1218.14819	886.69971	739.91925	1271.81836	837.97339	743.11090	1287.15918	1324.73267	627.23450	689.80457	1285.12427	509.72748	841.22839	1362.45544	616.94940	796.89514	1087.20374	611.55646	694.77911	1167.91614	503.03799	838.32141	1065.17847	602.74335	792.81873	1383.71021	484.91641	477.81915	1372.06970	430.91293	375.89944	1385.45081	377.16684	372.09167	1394.01636	390.54520	529.72620	1371.77368	337.97180	425.34747	1365.58606	352.01038	300.70099	1243.55103	336.60724	322.85144	1385.13281	214.70212	292.94293	1370.18896	96.84431	302.87546	1400.12866	217.77667	366.24979	1384.18372	104.39899	383.66074	1364.56848	-64.09437	352.94315	1283.45349	-52.90148	338.64697	1316.06470	-86.11536	421.94382	1371.82935	-150.15724	267.17484	1327.95776	-134.89125	216.87598	1025.33850	485.72351	486.51288	1033.35852	426.74438	359.46109	1029.83435	379.38306	543.83398	1039.07227	328.27191	418.11868	1026.24158	338.65924	325.72607	1153.44336	344.09494	306.03986	1015.71356	224.38164	306.60089	1014.00311	232.67599	396.41049	1032.95081	112.64400	398.24777	1047.66870	-66.58941	358.04294	1127.36658	-43.05948	342.91104	1090.58093	-59.91824	420.71530	1073.84595	-170.60088	270.86218	1123.63953	-153.05946	220.91818	
971	4.850	1221.28516	661.46606	1215.01807	1340.41248	707.56024	1203.72009	1076.72852	697.85522	1217.54346	1206.40503	780.76080	1146.02173	1509.23950	654.37762	1143.50537	1619.81287	656.80878	1032.35352	1616.66260	594.82166	1084.65552	1595.85815	667.16510	1185.58789	1552.20764	760.26416	1248.42615	1589.35449	737.57538	1268.91968	883.72900	637.65387	1159.17126	783.38959	660.42212	1057.78101	779.68134	597.95923	1104.22205	830.49774	676.57898	1217.96362	886.72278	740.23676	1271.62000	838.04193	743.44873	1286.89587	1324.81006	627.20917	689.68982	1285.15356	509.82425	841.19507	1362.50281	617.00854	796.81549	1087.25134	611.62848	694.67633	1167.91968	503.18549	838.31146	1065.22546	602.91089	792.71014	1383.73340	484.91708	477.79236	1372.08997	430.88828	375.88208	1384.86584	377.14755	371.83939	1394.03271	390.51346	529.73413	1371.74634	337.94968	425.32135	1365.57776	352.03342	300.73190	1243.54517	336.63608	322.84210	1385.37354	214.76369	293.10577	1370.09900	96.83349	302.87024	1400.15259	217.76569	366.25748	1384.12268	104.41669	383.65878	1364.49121	-64.10036	352.95609	1283.39575	-52.88345	338.69901	1315.97949	-86.12043	421.95496	1371.28772	-150.17886	267.04633	1327.90796	-134.85616	216.84238	1025.43445	485.79886	486.50351	1033.39880	426.74988	359.47702	1029.84045	379.44025	543.83069	1038.97424	328.35870	418.24631	1026.25928	338.65897	325.74353	1153.41858	344.04083	306.02740	1015.65826	224.37411	306.64386	1013.93585	232.68727	396.44437	1032.83862	112.65549	398.28558	1047.47656	-66.57529	358.09821	1127.17139	-43.08130	342.92737	1090.36902	-59.87563	420.77008	1073.61914	-170.68254	270.98343	1123.39709	-153.19609	221.02901	
